# File created by Blade
# Date/Time:  Wed Jan 21 14:28:00 2015
#---------------------------------------------------------
:version 1.10
:name HOM
:units
  mass 1.0
  length 1.000000
  angle deg
:documentation
     Acclaim Skeleton File
:root
   axis xyz
   order TX TY TZ RX RY RZ
   position 0.000000 0.000000 0.000000
   orientation 0 0 0
:bonedata
   begin
      id 1
      name Spine_dum
      direction 0.000000 1.000000 0.000000
      length 7.067664
      axis 0.0 0.0 0.0 xyz
   end
   begin
      id 2
      name LeftUpLeg_dum
      direction 1.000000 0.000000 0.000000
      length 4.013002
      axis 0.0 0.0 0.0 xyz
   end
   begin
      id 3
      name RightUpLeg_dum
      direction -1.000000 0.000000 0.000000
      length 4.013002
      axis 0.0 0.0 0.0 xyz
   end
   begin
      id 4
      name Spine
      direction 0.000000 1.000000 0.000000
      length 0.000000
      axis 0.0 0.0 0.0 xyz
      dof rx ry rz
   end
   begin
      id 5
      name Spine_dum1
      direction 0.000000 1.000000 0.000000
      length 15.039886
      axis 0.0 0.0 0.0 xyz
   end
   begin
      id 6
      name Spine_dum2
      direction 0.000000 1.000000 0.000000
      length 10.530368
      axis 0.0 0.0 0.0 xyz
   end
   begin
      id 7
      name Spine_dum3
      direction 0.000000 1.000000 0.000000
      length 10.530368
      axis 0.0 0.0 0.0 xyz
   end
   begin
      id 8
      name Head
      direction 0.000000 1.000000 0.000000
      length 4.527550
      axis 0.0 0.0 0.0 xyz
      dof rx ry rz
   end
   begin
      id 9
      name LeftShoulder
      direction 1.000000 0.000000 0.000000
      length 7.028855
      axis 0.0 0.0 -90.0 xyz
      dof rx ry rz
   end
   begin
      id 10
      name LeftArm
      direction 1.000000 0.000000 0.000000
      length 10.797705
      axis 0.0 0.0 -90.0 xyz
      dof rx ry rz
   end
   begin
      id 11
      name LeftForeArm
      direction 1.000000 0.000000 0.000000
      length 7.907442
      axis 0.0 0.0 -90.0 xyz
      dof ry rz rx
   end
   begin
      id 12
      name LeftHand
      direction 0.000000 0.000000 0.000000
      length 0.000000
      axis 0.0 0.0 -90.0 xyz
      dof rx ry rz
   end
   begin
      id 13
      name LeftHand_dum1
      direction 0.000000 0.000000 0.000000
      length 0.000000
      axis 0.0 0.0 -90.0 xyz
   end
   begin
      id 14
      name LeftHand_dum2
      direction 1.000000 0.000000 0.000000
      length 3.937000
      axis 0.0 0.0 -90.0 xyz
   end
   begin
      id 15
      name LeftHandThumb1
      direction 0.000000 0.000000 1.000000
      length 3.937000
      axis 0.0 0.0 -90.0 xyz
      dof rx rz ry
   end
   begin
      id 16
      name RightShoulder
      direction -1.000000 0.000000 0.000000
      length 7.028855
      axis 0.0 0.0 90.0 xyz
      dof rx ry rz
   end
   begin
      id 17
      name RightArm
      direction -1.000000 0.000000 0.000000
      length 10.797705
      axis 0.0 0.0 90.0 xyz
      dof rx ry rz
   end
   begin
      id 18
      name RightForeArm
      direction -1.000000 0.000000 0.000000
      length 7.907442
      axis 0.0 0.0 90.0 xyz
      dof ry rz rx
   end
   begin
      id 19
      name RightHand
      direction 0.000000 0.000000 0.000000
      length 0.000000
      axis 0.0 0.0 90.0 xyz
      dof rx ry rz
   end
   begin
      id 20
      name RightHand_dum1
      direction 0.000000 0.000000 0.000000
      length 0.000000
      axis 0.0 0.0 90.0 xyz
   end
   begin
      id 21
      name RightHand_dum2
      direction -1.000000 0.000000 0.000000
      length 3.937000
      axis 0.0 0.0 90.0 xyz
   end
   begin
      id 22
      name RightHandThumb1
      direction 0.000000 0.000000 1.000000
      length 3.937000
      axis 0.0 0.0 90.0 xyz
      dof rx rz ry
   end
   begin
      id 23
      name LeftUpLeg
      direction 0.000000 -1.000000 0.000000
      length 16.899758
      axis 0.0 0.0 0.0 xyz
      dof rx ry rz
   end
   begin
      id 24
      name LeftLeg
      direction 0.000000 -1.000000 0.000000
      length 17.389183
      axis 0.0 0.0 0.0 xyz
      dof rx ry rz
   end
   begin
      id 25
      name LeftFoot
      direction 0.000000 -0.258819 0.965926
      length 4.924528
      axis 15.0 0.0 0.0 xyz
      dof rx ry rz
   end
   begin
      id 26
      name LeftToeBase
      direction 0.000000 0.000000 1.000000
      length 2.952750
      axis 0.0 0.0 0.0 xyz
      dof rx ry rz
   end
   begin
      id 27
      name RightUpLeg
      direction 0.000000 -1.000000 0.000000
      length 16.899758
      axis 0.0 0.0 0.0 xyz
      dof rx ry rz
   end
   begin
      id 28
      name RightLeg
      direction 0.000000 -1.000000 0.000000
      length 17.389183
      axis 0.0 0.0 0.0 xyz
      dof rx ry rz
   end
   begin
      id 29
      name RightFoot
      direction 0.000000 -0.258819 0.965926
      length 4.924528
      axis 15.0 0.0 0.0 xyz
      dof rx ry rz
   end
   begin
      id 30
      name RightToeBase
      direction 0.000000 0.000000 1.000000
      length 2.952750
      axis 0.0 0.0 0.0 xyz
      dof rx ry rz
   end
:hierarchy
   begin
      root Spine_dum LeftUpLeg_dum RightUpLeg_dum
      Spine_dum Spine
      LeftUpLeg_dum LeftUpLeg
      RightUpLeg_dum RightUpLeg
      Spine Spine_dum1 Spine_dum2 Spine_dum3
      Spine_dum1 Head
      Spine_dum2 LeftShoulder
      Spine_dum3 RightShoulder
      LeftShoulder LeftArm
      LeftArm LeftForeArm
      LeftForeArm LeftHand
      LeftHand LeftHand_dum1 LeftHand_dum2
      LeftHand_dum1 LeftHandThumb1
      RightShoulder RightArm
      RightArm RightForeArm
      RightForeArm RightHand
      RightHand RightHand_dum1 RightHand_dum2
      RightHand_dum1 RightHandThumb1
      LeftUpLeg LeftLeg
      LeftLeg LeftFoot
      LeftFoot LeftToeBase
      RightUpLeg RightLeg
      RightLeg RightFoot
      RightFoot RightToeBase
   end

# File created by Blade
# Date/Time:  Wed Jan 21 14:28:11 2015
# Frame Rate: 120.000 fps
#------------------------------------------------------
:FULLY-SPECIFIED
:DEGREES
55
root 18.900981 35.482252 -20.791249 -173.066422 -3.182633 -178.816183
Spine -15.797801 -0.261161 1.075632
Head 7.184997 -0.962763 -1.284701
LeftShoulder -13.738613 -28.316716 14.749392
LeftArm -3.331408 11.986723 -19.495153
LeftForeArm 5.997181 -0.000000 4.904297
LeftHand -3.099334 0.000000 -1.065461
LeftHandThumb1 -26.253704 0.000000 33.147579
RightShoulder -11.057908 -6.551374 -7.821357
RightArm 0.538558 32.657887 24.553498
RightForeArm -42.268097 -0.000000 22.194760
RightHand -9.498075 -0.000000 1.769710
RightHandThumb1 -24.326973 -0.000000 -32.862282
LeftUpLeg 0.334129 8.739354 2.367531
LeftLeg -6.498933 -0.000000 0.000000
LeftFoot -19.259461 27.072811 -11.192104
LeftToeBase 27.861950 -0.000000 -0.000000
RightUpLeg -0.990982 -12.852618 -0.105666
RightLeg -3.273919 -0.000000 0.000000
RightFoot -19.827300 -22.063342 15.209702
RightToeBase 25.901164 -0.000000 -0.000000
56
root 18.901514 35.481728 -20.780275 -173.070297 -3.192874 -178.809140
Spine -15.636602 -0.266228 1.102346
Head 7.002873 -1.024693 -1.333672
LeftShoulder -13.826273 -27.863467 14.435270
LeftArm -4.165382 12.359110 -20.630470
LeftForeArm 5.256381 -0.000000 5.415585
LeftHand -3.156403 -0.000000 -1.677953
LeftHandThumb1 -26.253704 0.000000 33.147579
RightShoulder -11.080320 -7.060448 -7.582771
RightArm 0.216949 31.450803 25.670163
RightForeArm -43.001590 -0.000000 23.131988
RightHand -9.838352 -0.000000 2.051825
RightHandThumb1 -24.326973 -0.000000 -32.862282
LeftUpLeg 0.309281 8.729397 2.376179
LeftLeg -6.481969 -0.000000 0.000000
LeftFoot -19.263829 27.103451 -11.071115
LeftToeBase 28.077813 -0.000000 -0.000000
RightUpLeg -1.007557 -12.864098 -0.094444
RightLeg -3.268179 -0.000000 0.000000
RightFoot -19.819640 -22.062431 15.208661
RightToeBase 25.865073 -0.000000 -0.000000
57
root 18.900726 35.482674 -20.774185 -173.125123 -3.157384 -178.807706
Spine -15.409711 -0.239955 1.121364
Head 6.811418 -1.002056 -1.337730
LeftShoulder -13.960679 -27.414066 14.121650
LeftArm -4.975453 12.686172 -21.834075
LeftForeArm 4.738600 -0.000000 5.929100
LeftHand -3.126855 -0.000000 -2.195910
LeftHandThumb1 -26.253704 0.000000 33.147579
RightShoulder -11.003487 -7.498135 -7.384361
RightArm -0.354865 30.164087 26.806014
RightForeArm -43.498772 -0.000000 24.290443
RightHand -9.821568 -0.000000 2.308642
RightHandThumb1 -24.326973 -0.000000 -32.862282
LeftUpLeg 0.372746 8.747186 2.378103
LeftLeg -6.504250 -0.000000 0.000000
LeftFoot -19.231155 27.091524 -11.152640
LeftToeBase 27.860540 -0.000000 -0.000000
RightUpLeg -0.961090 -12.823268 -0.109420
RightLeg -3.275743 -0.000000 0.000000
RightFoot -19.801190 -22.057619 15.211111
RightToeBase 25.887828 -0.000000 -0.000000
58
root 18.900005 35.483168 -20.763359 -173.153410 -3.135025 -178.797191
Spine -15.200481 -0.170313 1.144314
Head 6.621869 -1.024887 -1.351509
LeftShoulder -13.996713 -27.067190 13.769358
LeftArm -5.943194 13.014336 -23.082345
LeftForeArm 4.333219 -0.000000 6.604519
LeftHand -3.140851 -0.000000 -2.736993
LeftHandThumb1 -26.253704 0.000000 33.147579
RightShoulder -10.976683 -7.989261 -7.141897
RightArm -0.908941 28.944422 27.936271
RightForeArm -43.850043 0.000000 25.357382
RightHand -9.557419 -0.000000 2.318624
RightHandThumb1 -24.326973 -0.000000 -32.862282
LeftUpLeg 0.384884 8.760238 2.385297
LeftLeg -6.502971 -0.000000 0.000000
LeftFoot -19.231749 27.107035 -11.140852
LeftToeBase 27.869979 -0.000000 -0.000000
RightUpLeg -0.956593 -12.771233 -0.107239
RightLeg -3.268631 -0.000000 0.000000
RightFoot -19.790263 -22.089283 15.219428
RightToeBase 25.849688 -0.000000 -0.000000
